<svg width="512" height="512" viewBox="0 0 512 512" fill="none" xmlns="http://www.w3.org/2000/svg">
<path d="M256 0C114.624 0 0 114.624 0 256C0 397.376 114.624 512 256 512C397.376 512 512 397.376 512 256C512 114.624 397.376 0 256 0ZM271.872 368.564C266.208 374.251 256.496 370.239 256.496 362.212V297C256.496 292.029 252.467 288 247.496 288H137C132.029 288 128 283.971 128 279V233C128 228.029 132.029 224 137 224H247.496C252.467 224 256.496 219.971 256.496 215V150.224C256.496 142.206 266.19 138.19 271.86 143.86L377.648 249.648C381.158 253.158 381.164 258.847 377.661 262.364L271.872 368.564Z" fill="white"/>
</svg>
