<svg width="26" height="24" viewBox="0 0 26 24" fill="none" xmlns="http://www.w3.org/2000/svg">
<path d="M13.336 20.4817C14.1799 20.4253 15.0167 20.2935 15.836 20.088C16.8479 20.3854 17.916 20.4527 18.9587 20.2848C19.0003 20.2799 19.0421 20.2768 19.084 20.2757C19.456 20.2757 19.944 20.4843 20.656 20.9236V20.2014C20.6563 20.0756 20.6911 19.9521 20.7568 19.8439C20.8224 19.7357 20.9165 19.6466 21.0293 19.5861C21.3396 19.4149 21.6262 19.2223 21.8893 19.0085C22.9267 18.1612 23.512 17.0296 23.512 15.8329C23.512 15.4379 23.448 15.0442 23.3213 14.6687C23.636 14.1029 23.8867 13.5124 24.0733 12.8971C24.6733 13.764 24.996 14.7873 25 15.8329C25 17.4598 24.216 18.9773 22.8573 20.0867C22.6298 20.2718 22.392 20.4421 22.144 20.5977V22.2898C22.144 22.8713 21.448 23.2063 20.9573 22.8595C20.4924 22.525 20.0119 22.2118 19.5173 21.9209C19.3745 21.8403 19.2266 21.7685 19.0747 21.7058C18.6619 21.7655 18.2452 21.7956 17.828 21.7957C16.1347 21.7957 14.5693 21.3043 13.336 20.4817ZM4.37467 17.0987C2.236 15.3479 1 12.9609 1 10.4032C1 5.17818 6.10933 1 12.348 1C18.588 1 23.6987 5.17688 23.6987 10.4032C23.6987 15.6282 18.588 19.8051 12.348 19.8051C11.6467 19.8051 10.9556 19.7529 10.2747 19.6486C9.98133 19.7151 8.80533 20.3891 7.112 21.5819C6.49867 22.0148 5.62933 21.5976 5.62933 20.8689V17.9839C5.19016 17.7184 4.77128 17.4222 4.376 17.0974M10.316 17.8692C10.3676 17.8692 10.4196 17.8731 10.472 17.8809C11.0853 17.98 11.7107 18.0299 12.348 18.0308C17.6187 18.0308 21.836 14.5827 21.836 10.4019C21.836 6.2224 17.6187 2.77426 12.3493 2.77426C7.08 2.77426 2.86 6.22501 2.86 10.4032C2.86 12.4238 3.84667 14.3272 5.588 15.752C6.02711 16.1101 6.50533 16.4317 7.02267 16.7167C7.163 16.7929 7.28015 16.9041 7.36214 17.039C7.44412 17.1739 7.48802 17.3277 7.48933 17.4846V19.148C8.82933 18.2811 9.71067 17.8692 10.316 17.8692Z" fill="black"/>
<path d="M4.37467 17.0987C2.236 15.3479 1 12.9609 1 10.4032C1 5.17818 6.10933 1 12.348 1C18.588 1 23.6987 5.17688 23.6987 10.4032C23.6987 15.6282 18.588 19.8051 12.348 19.8051C11.6467 19.8051 10.9556 19.7529 10.2747 19.6486C9.98133 19.7151 8.80533 20.3891 7.112 21.5819C6.49867 22.0148 5.62933 21.5976 5.62933 20.8688V17.9839C5.19016 17.7184 4.77128 17.4222 4.376 17.0974M13.336 20.4817C14.1799 20.4253 15.0167 20.2935 15.836 20.088C16.8479 20.3854 17.916 20.4527 18.9587 20.2848C19.0003 20.2799 19.0421 20.2768 19.084 20.2757C19.456 20.2757 19.944 20.4843 20.656 20.9236V20.2014C20.6563 20.0756 20.6911 19.9521 20.7568 19.8439C20.8224 19.7357 20.9165 19.6466 21.0293 19.5861C21.3396 19.4149 21.6262 19.2223 21.8893 19.0085C22.9267 18.1612 23.512 17.0296 23.512 15.8329C23.512 15.4379 23.448 15.0442 23.3213 14.6687C23.636 14.1029 23.8867 13.5124 24.0733 12.8971C24.6733 13.764 24.996 14.7873 25 15.8329C25 17.4598 24.216 18.9773 22.8573 20.0867C22.6298 20.2718 22.392 20.4421 22.144 20.5977V22.2898C22.144 22.8712 21.448 23.2063 20.9573 22.8595C20.4924 22.525 20.0119 22.2118 19.5173 21.9209C19.3745 21.8403 19.2266 21.7685 19.0747 21.7058C18.6619 21.7655 18.2452 21.7956 17.828 21.7957C16.1347 21.7957 14.5693 21.3043 13.336 20.4817ZM10.316 17.8692C10.3676 17.8692 10.4196 17.8731 10.472 17.8809C11.0853 17.98 11.7107 18.0299 12.348 18.0308C17.6187 18.0308 21.836 14.5827 21.836 10.4019C21.836 6.2224 17.6187 2.77426 12.3493 2.77426C7.08 2.77426 2.86 6.22501 2.86 10.4032C2.86 12.4238 3.84667 14.3272 5.588 15.752C6.02711 16.1101 6.50533 16.4317 7.02267 16.7167C7.163 16.7929 7.28015 16.9041 7.36214 17.039C7.44412 17.1739 7.48802 17.3277 7.48933 17.4846V19.148C8.82933 18.2811 9.71067 17.8692 10.316 17.8692Z" stroke="black" stroke-width="0.8"/>
<path d="M8.29405 12C8.63725 12 8.9664 11.842 9.20908 11.5607C9.45176 11.2794 9.5881 10.8978 9.5881 10.5C9.5881 10.1022 9.45176 9.72064 9.20908 9.43934C8.9664 9.15804 8.63725 9 8.29405 9C7.95085 9 7.6217 9.15804 7.37902 9.43934C7.13634 9.72064 7 10.1022 7 10.5C7 10.8978 7.13634 11.2794 7.37902 11.5607C7.6217 11.842 7.95085 12 8.29405 12ZM12.5006 12C12.8438 12 13.1729 11.842 13.4156 11.5607C13.6583 11.2794 13.7946 10.8978 13.7946 10.5C13.7946 10.1022 13.6583 9.72064 13.4156 9.43934C13.1729 9.15804 12.8438 9 12.5006 9C12.1574 9 11.8282 9.15804 11.5855 9.43934C11.3429 9.72064 11.2065 10.1022 11.2065 10.5C11.2065 10.8978 11.3429 11.2794 11.5855 11.5607C11.8282 11.842 12.1574 12 12.5006 12ZM16.7059 12C17.0492 12 17.3783 11.842 17.621 11.5607C17.8637 11.2794 18 10.8978 18 10.5C18 10.1022 17.8637 9.72064 17.621 9.43934C17.3783 9.15804 17.0492 9 16.7059 9C16.3627 9 16.0336 9.15804 15.7909 9.43934C15.5482 9.72064 15.4119 10.1022 15.4119 10.5C15.4119 10.8978 15.5482 11.2794 15.7909 11.5607C16.0336 11.842 16.3627 12 16.7059 12Z" fill="black"/>
</svg>
