<svg width="24" height="24" viewBox="0 0 24 24" fill="none" xmlns="http://www.w3.org/2000/svg">
<path d="M12.0049 4.00293C18.0799 4.00293 23.0049 6.68893 23.0049 10.0029V14.0029C23.0049 17.3169 18.0799 20.0029 12.0049 20.0029C6.03788 20.0029 1.18088 17.4119 1.00988 14.1799L1.00488 14.0029V10.0029C1.00488 6.68893 5.92988 4.00293 12.0049 4.00293ZM12.0049 16.0029C8.28488 16.0029 4.99488 14.9949 3.00488 13.4529V14.0029C3.00488 15.8849 6.88788 18.0029 12.0049 18.0029C17.0149 18.0029 20.8429 15.9729 20.9999 14.1209L21.0049 14.0029L21.0059 13.4529C19.0159 14.9949 15.7259 16.0029 12.0049 16.0029ZM12.0049 6.00293C6.88788 6.00293 3.00488 8.12093 3.00488 10.0029C3.00488 11.8849 6.88788 14.0029 12.0049 14.0029C17.1219 14.0029 21.0049 11.8849 21.0049 10.0029C21.0049 8.12093 17.1219 6.00293 12.0049 6.00293Z" fill="black"/>
</svg>
