<svg width="28" height="28" viewBox="0 0 28 28" fill="none" xmlns="http://www.w3.org/2000/svg">
<path d="M12.4444 17.375C12.4444 19.1 15.3676 20.5 18.9722 20.5C22.5769 20.5 25.5 19.1 25.5 17.375M2 11.125C2 12.85 4.92314 14.25 8.52778 14.25C9.99783 14.25 11.3543 14.0175 12.4444 13.625M2 15.5C2 17.225 4.92314 18.625 8.52778 18.625C9.99783 18.625 11.353 18.3925 12.4444 18M18.9722 15.5C15.3676 15.5 12.4444 14.1 12.4444 12.375C12.4444 10.65 15.3676 9.25 18.9722 9.25C22.5769 9.25 25.5 10.65 25.5 12.375C25.5 14.1 22.5769 15.5 18.9722 15.5Z" stroke="#883CBE" stroke-width="1.5" stroke-linecap="round" stroke-linejoin="round"/>
<path d="M2 6.125V19.875C2 21.6 4.92314 23 8.52778 23C9.99783 23 11.353 22.7675 12.4444 22.375M12.4444 22.375V12.375M12.4444 22.375C12.4444 24.1 15.3676 25.5 18.9722 25.5C22.5769 25.5 25.5 24.1 25.5 22.375V12.375M15.0556 9.875V6.125" stroke="#883CBE" stroke-width="1.5" stroke-linecap="round" stroke-linejoin="round"/>
<path d="M8.52778 9.25C4.92314 9.25 2 7.85 2 6.125C2 4.4 4.92314 3 8.52778 3C12.1324 3 15.0556 4.4 15.0556 6.125C15.0556 7.85 12.1324 9.25 8.52778 9.25Z" stroke="#883CBE" stroke-width="1.5" stroke-linecap="round" stroke-linejoin="round"/>
</svg>
