<svg width="29" height="29" viewBox="0 0 29 29" fill="none" xmlns="http://www.w3.org/2000/svg">
<path d="M14.5002 10.875C15.4616 10.875 16.3836 11.2569 17.0634 11.9367C17.7432 12.6166 18.1252 13.5386 18.1252 14.5C18.1252 15.4614 17.7432 16.3834 17.0634 17.0633C16.3836 17.7431 15.4616 18.125 14.5002 18.125C13.5388 18.125 12.6167 17.7431 11.9369 17.0633C11.2571 16.3834 10.8752 15.4614 10.8752 14.5C10.8752 13.5386 11.2571 12.6166 11.9369 11.9367C12.6167 11.2569 13.5388 10.875 14.5002 10.875ZM14.5002 5.4375C20.5418 5.4375 25.7014 9.19542 27.7918 14.5C25.7014 19.8046 20.5418 23.5625 14.5002 23.5625C8.4585 23.5625 3.29891 19.8046 1.2085 14.5C3.29891 9.19542 8.4585 5.4375 14.5002 5.4375ZM3.84266 14.5C4.8193 16.4941 6.33582 18.1742 8.21982 19.3493C10.1038 20.5245 12.2797 21.1474 14.5002 21.1474C16.7206 21.1474 18.8965 20.5245 20.7805 19.3493C22.6645 18.1742 24.181 16.4941 25.1577 14.5C24.181 12.5059 22.6645 10.8258 20.7805 9.65065C18.8965 8.47554 16.7206 7.85257 14.5002 7.85257C12.2797 7.85257 10.1038 8.47554 8.21982 9.65065C6.33582 10.8258 4.8193 12.5059 3.84266 14.5Z" fill="#CCCCCC"/>
<rect x="5.41406" y="25.2134" width="2" height="28" rx="1" transform="rotate(-135 5.41406 25.2134)" fill="#CCCCCC"/>
</svg>
