<svg width="29" height="30" viewBox="0 0 29 30" fill="none" xmlns="http://www.w3.org/2000/svg">
<path d="M14.5002 11.375C15.4616 11.375 16.3836 11.7569 17.0634 12.4367C17.7432 13.1166 18.1252 14.0386 18.1252 15C18.1252 15.9614 17.7432 16.8834 17.0634 17.5633C16.3836 18.2431 15.4616 18.625 14.5002 18.625C13.5388 18.625 12.6167 18.2431 11.9369 17.5633C11.2571 16.8834 10.8752 15.9614 10.8752 15C10.8752 14.0386 11.2571 13.1166 11.9369 12.4367C12.6167 11.7569 13.5388 11.375 14.5002 11.375ZM14.5002 5.9375C20.5418 5.9375 25.7014 9.69542 27.7918 15C25.7014 20.3046 20.5418 24.0625 14.5002 24.0625C8.4585 24.0625 3.29891 20.3046 1.2085 15C3.29891 9.69542 8.4585 5.9375 14.5002 5.9375ZM3.84266 15C4.8193 16.9941 6.33582 18.6742 8.21982 19.8493C10.1038 21.0245 12.2797 21.6474 14.5002 21.6474C16.7206 21.6474 18.8965 21.0245 20.7805 19.8493C22.6645 18.6742 24.181 16.9941 25.1577 15C24.181 13.0059 22.6645 11.3258 20.7805 10.1507C18.8965 8.97554 16.7206 8.35257 14.5002 8.35257C12.2797 8.35257 10.1038 8.97554 8.21982 10.1507C6.33582 11.3258 4.8193 13.0059 3.84266 15Z" fill="#CCCCCC"/>
</svg>
