<svg width="24" height="20" viewBox="0 0 24 20" fill="none" xmlns="http://www.w3.org/2000/svg">
<path d="M2.4 20C1.74 20 1.1752 19.7554 0.7056 19.2662C0.236 18.7771 0.0008 18.1883 0 17.5V2.5C0 1.8125 0.2352 1.22417 0.7056 0.735C1.176 0.245833 1.7408 0.000833333 2.4 0H9.6L12 2.5H21.6C22.26 2.5 22.8252 2.745 23.2956 3.235C23.766 3.725 24.0008 4.31333 24 5V17.5C24 18.1875 23.7652 18.7762 23.2956 19.2662C22.826 19.7562 22.2608 20.0008 21.6 20H2.4ZM2.4 17.5H21.6V5H11.01L8.61 2.5H2.4V17.5Z" fill="black"/>
</svg>
