<svg width="24" height="26" viewBox="0 0 24 26" fill="none" xmlns="http://www.w3.org/2000/svg">
<mask id="path-1-inside-1_847_1223" fill="white">
<path d="M16 25.667V15.0003C16 14.6467 15.8595 14.3076 15.6095 14.0575C15.3594 13.8075 15.0203 13.667 14.6667 13.667H9.33333C8.97971 13.667 8.64057 13.8075 8.39052 14.0575C8.14048 14.3076 8 14.6467 8 15.0003V25.667"/>
</mask>
<path d="M13.5 25.667C13.5 27.0477 14.6193 28.167 16 28.167C17.3807 28.167 18.5 27.0477 18.5 25.667H16H13.5ZM5.5 25.667C5.5 27.0477 6.61929 28.167 8 28.167C9.38071 28.167 10.5 27.0477 10.5 25.667H8H5.5ZM16 25.667H18.5V15.0003H16H13.5V25.667H16ZM16 15.0003H18.5C18.5 13.9837 18.0961 13.0086 17.3772 12.2897L15.6095 14.0575L13.8417 15.8253C13.6229 15.6065 13.5 15.3097 13.5 15.0003H16ZM15.6095 14.0575L17.3772 12.2897C16.6584 11.5709 15.6833 11.167 14.6667 11.167V13.667V16.167C14.3572 16.167 14.0605 16.0441 13.8417 15.8253L15.6095 14.0575ZM14.6667 13.667V11.167H9.33333V13.667V16.167H14.6667V13.667ZM9.33333 13.667V11.167C8.31667 11.167 7.34165 11.5709 6.62276 12.2897L8.39052 14.0575L10.1583 15.8253C9.9395 16.0441 9.64275 16.167 9.33333 16.167V13.667ZM8.39052 14.0575L6.62276 12.2897C5.90387 13.0086 5.5 13.9837 5.5 15.0003H8H10.5C10.5 15.3097 10.3771 15.6065 10.1583 15.8253L8.39052 14.0575ZM8 15.0003H5.5V25.667H8H10.5V15.0003H8Z" fill="black" mask="url(#path-1-inside-1_847_1223)"/>
<path d="M12 1.58301C12.3345 1.58301 12.6585 1.70119 12.9141 1.91699L22.2412 9.91211L22.248 9.91797C22.4053 10.0509 22.5315 10.2166 22.6182 10.4033C22.7049 10.5903 22.75 10.7939 22.75 11V23C22.75 23.3757 22.6006 23.7363 22.335 24.002C22.0693 24.2676 21.7087 24.417 21.333 24.417H2.66699C2.29127 24.417 1.93072 24.2676 1.66504 24.002C1.39936 23.7363 1.25 23.3757 1.25 23V11C1.24995 10.7939 1.2951 10.5902 1.38184 10.4033C1.46852 10.2166 1.59474 10.0509 1.75195 9.91797L1.75879 9.91211L11.085 1.91699L11.0859 1.91797C11.3416 1.70191 11.6652 1.58301 12 1.58301Z" stroke="black" stroke-width="2.5" stroke-linecap="round" stroke-linejoin="round"/>
</svg>
