<svg width="37" height="37" viewBox="0 0 37 37" fill="none" xmlns="http://www.w3.org/2000/svg">
<path d="M13.875 31.69C13.875 33.7627 15.6094 35.4585 17.7292 35.4585C19.849 35.4585 21.5833 33.7627 21.5833 31.69C21.5833 29.6173 19.849 27.9215 17.7292 27.9215C15.6094 27.9215 13.875 29.6173 13.875 31.69ZM13.875 5.31035C13.875 7.38303 15.6094 9.07887 17.7292 9.07887C19.849 9.07887 21.5833 7.38303 21.5833 5.31035C21.5833 3.23766 19.849 1.54183 17.7292 1.54183C15.6094 1.54183 13.875 3.23766 13.875 5.31035ZM13.875 18.5002C13.875 20.5728 15.6094 22.2687 17.7292 22.2687C19.849 22.2687 21.5833 20.5728 21.5833 18.5002C21.5833 16.4275 19.849 14.7316 17.7292 14.7316C15.6094 14.7316 13.875 16.4275 13.875 18.5002Z" fill="black"/>
</svg>
