<svg width="26" height="21" viewBox="0 0 26 21" fill="none" xmlns="http://www.w3.org/2000/svg">
<path d="M1.59961 0.600098C1.33439 0.600098 1.08004 0.711308 0.892502 0.909263C0.704966 1.10722 0.599609 1.3757 0.599609 1.65565C0.599609 1.9356 0.704966 2.20409 0.892502 2.40204C1.08004 2.6 1.33439 2.71121 1.59961 2.71121H23.5996C23.8648 2.71121 24.1192 2.6 24.3067 2.40204C24.4943 2.20409 24.5996 1.9356 24.5996 1.65565C24.5996 1.3757 24.4943 1.10722 24.3067 0.909263C24.1192 0.711308 23.8648 0.600098 23.5996 0.600098H1.59961ZM1.59961 9.04454C1.33439 9.04454 1.08004 9.15575 0.892502 9.35371C0.704966 9.55166 0.599609 9.82015 0.599609 10.1001C0.599609 10.38 0.704966 10.6485 0.892502 10.8465C1.08004 11.0444 1.33439 11.1557 1.59961 11.1557H23.5996C23.8648 11.1557 24.1192 11.0444 24.3067 10.8465C24.4943 10.6485 24.5996 10.38 24.5996 10.1001C24.5996 9.82015 24.4943 9.55166 24.3067 9.35371C24.1192 9.15575 23.8648 9.04454 23.5996 9.04454H1.59961ZM1.59961 17.489C1.33439 17.489 1.08004 17.6002 0.892502 17.7982C0.704966 17.9961 0.599609 18.2646 0.599609 18.5445C0.599609 18.8245 0.704966 19.093 0.892502 19.2909C1.08004 19.4889 1.33439 19.6001 1.59961 19.6001H23.5996C23.8648 19.6001 24.1192 19.4889 24.3067 19.2909C24.4943 19.093 24.5996 18.8245 24.5996 18.5445C24.5996 18.2646 24.4943 17.9961 24.3067 17.7982C24.1192 17.6002 23.8648 17.489 23.5996 17.489H1.59961Z" fill="black" stroke="black" stroke-width="1.2"/>
</svg>
