<svg width="168" height="110" viewBox="0 0 168 110" fill="none" xmlns="http://www.w3.org/2000/svg">
<rect width="168" height="110" rx="12" fill="#F9F9F9"/>
<path d="M76.2085 56.25C74.3889 56.25 72.6438 55.5586 71.3571 54.3279C70.0705 53.0972 69.3477 51.428 69.3477 49.6875C69.3477 47.947 70.0705 46.2778 71.3571 45.0471C72.6438 43.8164 74.3889 43.125 76.2085 43.125C76.6382 41.2105 77.8954 39.528 79.7035 38.4477C80.5987 37.9128 81.6023 37.5418 82.6569 37.356C83.7114 37.1702 84.7963 37.1731 85.8497 37.3646C86.903 37.5561 87.904 37.9324 88.7957 38.4722C89.6875 39.0119 90.4523 39.7044 91.0466 40.5101C91.641 41.3158 92.0532 42.2191 92.2597 43.1682C92.4661 44.1173 92.4629 45.0937 92.2501 46.0417H93.7085C95.0622 46.0417 96.3604 46.5794 97.3176 47.5366C98.2749 48.4939 98.8126 49.7921 98.8126 51.1458C98.8126 52.4995 98.2749 53.7978 97.3176 54.755C96.3604 55.7122 95.0622 56.25 93.7085 56.25H92.2501" stroke="#A5A5A6" stroke-width="2" stroke-linecap="round" stroke-linejoin="round"/>
<path d="M79.125 51.875L83.5 47.5M83.5 47.5L87.875 51.875M83.5 47.5V60.625" stroke="#A5A5A6" stroke-width="2" stroke-linecap="round" stroke-linejoin="round"/>
<path d="M60.1641 68.4492V79.0547H58.8516V68.4492H60.1641ZM54.457 69.2227C56.0508 69.2227 57.2109 70.6758 57.2227 72.9609C57.2109 75.2695 56.0508 76.7109 54.457 76.7109C52.8516 76.7109 51.6914 75.2695 51.6914 72.9609C51.6914 70.6758 52.8516 69.2227 54.457 69.2227ZM54.457 70.3945C53.5547 70.3945 52.9453 71.3438 52.9453 72.9609C52.9453 74.5898 53.5547 75.5391 54.457 75.5391C55.3477 75.5391 55.957 74.5898 55.957 72.9609C55.957 71.3438 55.3477 70.3945 54.457 70.3945ZM67.3242 69.4453V76.4648H62.2852V69.4453H67.3242ZM63.5742 70.4648V75.4219H66.0586V70.4648H63.5742ZM70.5352 68.4492V79.0547H69.2227V68.4492H70.5352ZM76.0898 71.4609C76.0898 73.1953 77.1094 75.0234 78.8203 75.7383L78.1055 76.7695C76.8516 76.2305 75.9375 75.1172 75.457 73.7695C74.9648 75.2227 74.0391 76.4414 72.7969 77.0273L72.0469 76.0078C73.7227 75.2344 74.7656 73.2656 74.7656 71.4609V70.5703H72.4336V69.4922H78.4102V70.5703H76.0898V71.4609ZM80.9062 68.4492V79.043H79.5938V68.4492H80.9062ZM88.2539 68.918C89.625 68.9062 90.7031 69.6973 90.9727 70.8633H92.8828V68.4492H94.1836V74.1328H92.8828V71.918H90.9844C90.7207 73.1074 89.6309 73.9102 88.2539 73.9102C86.625 73.9102 85.4531 72.8672 85.4531 71.4023C85.4531 69.9609 86.625 68.9062 88.2539 68.918ZM88.2539 70.0078C87.3398 70.0078 86.6953 70.5469 86.6953 71.4023C86.6953 72.2461 87.3398 72.8086 88.2539 72.8086C89.1445 72.8086 89.7773 72.2461 89.7891 71.4023C89.7773 70.5469 89.1445 70.0078 88.2539 70.0078ZM88.4883 74.625V75.75H92.8828V74.625H94.1836V78.9141H87.1992V74.625H88.4883ZM88.4883 77.8594H92.8828V76.7578H88.4883V77.8594ZM105.363 76.7344V77.8125H95.6836V76.7344H99.8555V75.0117H96.832V71.543H102.926V70.2305H96.8086V69.1758H104.215V72.5742H98.1328V73.9453H104.461V75.0117H101.145V76.7344H105.363ZM114.656 73.418V74.4609H107.227V69.375H114.574V70.4297H108.516V73.418H114.656ZM115.734 76.6172V77.6953H106.055V76.6172H115.734Z" fill="#A5A5A6"/>
</svg>
