<svg width="25" height="22" viewBox="0 0 25 22" fill="none" xmlns="http://www.w3.org/2000/svg">
<path d="M2 1.5H3.84722L4.63889 4.66667M4.63889 4.66667L7.27778 15.2222H21L23.6389 4.66667H4.63889Z" stroke="black" stroke-width="2.6" stroke-linecap="round" stroke-linejoin="round"/>
<path d="M7.27767 20.5002C8.15212 20.5002 8.861 19.7913 8.861 18.9168C8.861 18.0424 8.15212 17.3335 7.27767 17.3335C6.40322 17.3335 5.69434 18.0424 5.69434 18.9168C5.69434 19.7913 6.40322 20.5002 7.27767 20.5002Z" stroke="black" stroke-width="1.8" stroke-linecap="round" stroke-linejoin="round"/>
<path d="M21.0003 20.5002C21.8748 20.5002 22.5837 19.7913 22.5837 18.9168C22.5837 18.0424 21.8748 17.3335 21.0003 17.3335C20.1259 17.3335 19.417 18.0424 19.417 18.9168C19.417 19.7913 20.1259 20.5002 21.0003 20.5002Z" stroke="black" stroke-width="1.8" stroke-linecap="round" stroke-linejoin="round"/>
</svg>
