<svg width="40" height="40" viewBox="0 0 40 40" fill="none" xmlns="http://www.w3.org/2000/svg">
<path d="M1.66699 5H4.7457L6.06514 10.2778M6.06514 10.2778L10.4633 27.8704H33.3337L37.7318 10.2778H6.06514Z" stroke="white" stroke-width="2.6" stroke-linecap="round" stroke-linejoin="round"/>
<path d="M10.4631 36.6664C11.9205 36.6664 13.102 35.485 13.102 34.0276C13.102 32.5701 11.9205 31.3887 10.4631 31.3887C9.00569 31.3887 7.82422 32.5701 7.82422 34.0276C7.82422 35.485 9.00569 36.6664 10.4631 36.6664Z" stroke="white" stroke-width="1.8" stroke-linecap="round" stroke-linejoin="round"/>
<path d="M33.3332 36.6664C34.7906 36.6664 35.9721 35.485 35.9721 34.0276C35.9721 32.5701 34.7906 31.3887 33.3332 31.3887C31.8758 31.3887 30.6943 32.5701 30.6943 34.0276C30.6943 35.485 31.8758 36.6664 33.3332 36.6664Z" stroke="white" stroke-width="1.8" stroke-linecap="round" stroke-linejoin="round"/>
</svg>
