<svg width="44" height="44" viewBox="0 0 44 44" fill="none" xmlns="http://www.w3.org/2000/svg">
<path d="M14.6878 25.7141C18.3899 25.7141 21.5779 26.3711 23.8789 27.9432C26.2622 29.5727 27.5425 32.0834 27.5425 35.3606C27.5218 35.6921 27.3774 36.0032 27.1386 36.2305C26.8998 36.4578 26.5846 36.5843 26.257 36.5843C25.9295 36.5843 25.6143 36.4578 25.3755 36.2305C25.1367 36.0032 24.9923 35.6921 24.9716 35.3606C24.9716 32.863 24.0512 31.1996 22.4443 30.102C20.7526 28.9496 18.1586 28.3213 14.6878 28.3213C11.217 28.3213 8.62032 28.9496 6.9312 30.1046C5.32436 31.2022 4.40396 32.8656 4.40396 35.3632C4.38328 35.6947 4.23884 36.0058 4.00004 36.2331C3.76124 36.4604 3.44601 36.587 3.11848 36.587C2.79095 36.587 2.47572 36.4604 2.23692 36.2331C1.99812 36.0058 1.85369 35.6947 1.83301 35.3632C1.83301 32.0834 3.11077 29.5727 5.49404 27.9432C7.79504 26.3711 10.9856 25.7141 14.6878 25.7141ZM27.4783 25.7141C31.1778 25.7141 34.3684 26.3711 36.6694 27.9432C39.0527 29.5727 40.333 32.0834 40.333 35.3632C40.333 35.709 40.1976 36.0406 39.9565 36.285C39.7154 36.5295 39.3885 36.6668 39.0475 36.6668C38.7066 36.6668 38.3796 36.5295 38.1386 36.285C37.8975 36.0406 37.7621 35.709 37.7621 35.3632C37.7621 32.8656 36.8417 31.2022 35.2322 30.1046C33.9005 29.1947 32.0108 28.6185 29.571 28.4099C28.9633 27.4032 28.2092 26.4952 27.3343 25.7167L27.4783 25.7141ZM14.6878 7.33353C16.8003 7.38752 18.8084 8.27646 20.2837 9.81074C21.759 11.345 22.5848 13.4032 22.5848 15.5461C22.5848 17.6891 21.759 19.7472 20.2837 21.2815C18.8084 22.8158 16.8003 23.7047 14.6878 23.7587C12.5399 23.7587 10.48 22.8935 8.96126 21.3533C7.4425 19.8131 6.58927 17.7242 6.58927 15.5461C6.58927 13.368 7.4425 11.2791 8.96126 9.73895C10.48 8.19879 12.5399 7.33353 14.6878 7.33353ZM27.4783 7.33353C29.6261 7.33353 31.686 8.19879 33.2048 9.73895C34.7235 11.2791 35.5767 13.368 35.5767 15.5461C35.5767 17.7242 34.7235 19.8131 33.2048 21.3533C31.686 22.8935 29.6261 23.7587 27.4783 23.7587C26.1311 23.7587 24.8662 23.4198 23.7504 22.8306C24.2884 22.1445 24.7489 21.3994 25.1233 20.6093C25.9658 21.0134 26.8954 21.195 27.8256 21.1371C28.7559 21.0792 29.6566 20.7837 30.444 20.2781C31.2315 19.7725 31.8801 19.0732 32.3295 18.2452C32.7789 17.4172 33.0146 16.4874 33.0146 15.5422C33.0146 14.5971 32.7789 13.6673 32.3295 12.8393C31.8801 12.0113 31.2315 11.3119 30.444 10.8063C29.6566 10.3007 28.7559 10.0052 27.8256 9.94732C26.8954 9.88943 25.9658 10.071 25.1233 10.4752C24.7478 9.68674 24.2864 8.94342 23.7478 8.25908C24.8975 7.64723 26.1773 7.3295 27.4757 7.33353M14.6878 9.94071C13.251 9.98515 11.8877 10.5952 10.8868 11.6416C9.88599 12.6879 9.32626 14.0884 9.32626 15.5461C9.32626 17.0039 9.88599 18.4043 10.8868 19.4507C11.8877 20.4971 13.251 21.1071 14.6878 21.1515C16.1538 21.1515 17.5597 20.561 18.5963 19.5098C19.6329 18.4585 20.2153 17.0328 20.2153 15.5461C20.2153 14.0595 19.6329 12.6337 18.5963 11.5825C17.5597 10.5313 16.1538 9.94071 14.6878 9.94071Z" fill="white"/>
<path d="M27.4783 7.33353C29.6261 7.33353 31.686 8.19879 33.2048 9.73895C34.7235 11.2791 35.5767 13.368 35.5767 15.5461C35.5767 17.7242 34.7235 19.8131 33.2048 21.3533C31.686 22.8935 29.6261 23.7587 27.4783 23.7587C26.1311 23.7587 24.8662 23.4198 23.7504 22.8306C24.2884 22.1445 24.7489 21.3994 25.1233 20.6093C25.9658 21.0134 26.8954 21.195 27.8256 21.1371C28.7559 21.0792 29.6566 20.7837 30.444 20.2781C31.2315 19.7725 31.8801 19.0732 32.3295 18.2452C32.7789 17.4172 33.0146 16.4874 33.0146 15.5422C33.0146 14.5971 32.7789 13.6673 32.3295 12.8393C31.8801 12.0113 31.2315 11.3119 30.444 10.8063C29.6566 10.3007 28.7559 10.0052 27.8256 9.94732C26.8954 9.88943 25.9658 10.071 25.1233 10.4752C24.7478 9.68674 24.2864 8.94342 23.7478 8.25908C24.8975 7.64723 26.1773 7.3295 27.4757 7.33353M14.6878 25.7141C18.3899 25.7141 21.5779 26.3711 23.8789 27.9432C26.2622 29.5727 27.5425 32.0834 27.5425 35.3606C27.5218 35.6921 27.3774 36.0032 27.1386 36.2305C26.8998 36.4578 26.5846 36.5843 26.257 36.5843C25.9295 36.5843 25.6143 36.4578 25.3755 36.2305C25.1367 36.0032 24.9923 35.6921 24.9716 35.3606C24.9716 32.863 24.0512 31.1996 22.4443 30.102C20.7526 28.9496 18.1586 28.3213 14.6878 28.3213C11.217 28.3213 8.62032 28.9496 6.9312 30.1046C5.32436 31.2022 4.40396 32.8656 4.40396 35.3632C4.38328 35.6947 4.23884 36.0058 4.00004 36.2331C3.76124 36.4604 3.44601 36.587 3.11848 36.587C2.79095 36.587 2.47572 36.4604 2.23692 36.2331C1.99812 36.0058 1.85369 35.6947 1.83301 35.3632C1.83301 32.0834 3.11077 29.5727 5.49404 27.9432C7.79504 26.3711 10.9856 25.7141 14.6878 25.7141ZM27.4783 25.7141C31.1778 25.7141 34.3684 26.3711 36.6694 27.9432C39.0527 29.5727 40.333 32.0834 40.333 35.3632C40.333 35.709 40.1976 36.0406 39.9565 36.285C39.7154 36.5295 39.3885 36.6668 39.0475 36.6668C38.7066 36.6668 38.3796 36.5295 38.1386 36.285C37.8975 36.0406 37.7621 35.709 37.7621 35.3632C37.7621 32.8656 36.8417 31.2022 35.2322 30.1046C33.9005 29.1947 32.0108 28.6185 29.571 28.4099C28.9633 27.4032 28.2092 26.4952 27.3343 25.7167L27.4783 25.7141ZM14.6878 7.33353C16.8003 7.38752 18.8084 8.27646 20.2837 9.81074C21.759 11.345 22.5848 13.4032 22.5848 15.5461C22.5848 17.6891 21.759 19.7472 20.2837 21.2815C18.8084 22.8158 16.8003 23.7047 14.6878 23.7587C12.5399 23.7587 10.48 22.8935 8.96126 21.3533C7.4425 19.8131 6.58927 17.7242 6.58927 15.5461C6.58927 13.368 7.4425 11.2791 8.96126 9.73895C10.48 8.19879 12.5399 7.33353 14.6878 7.33353ZM14.6878 9.94071C13.251 9.98515 11.8877 10.5952 10.8868 11.6416C9.88599 12.6879 9.32626 14.0884 9.32626 15.5461C9.32626 17.0039 9.88599 18.4043 10.8868 19.4507C11.8877 20.4971 13.251 21.1071 14.6878 21.1515C16.1538 21.1515 17.5597 20.561 18.5963 19.5098C19.6329 18.4585 20.2153 17.0328 20.2153 15.5461C20.2153 14.0595 19.6329 12.6337 18.5963 11.5825C17.5597 10.5313 16.1538 9.94071 14.6878 9.94071Z" stroke="white"/>
</svg>
