<svg width="44" height="34" viewBox="0 0 44 34" fill="none" xmlns="http://www.w3.org/2000/svg">
<path d="M4.4 34C3.19 34 2.15453 33.5842 1.2936 32.7526C0.432667 31.921 0.00146667 30.9202 0 29.75V4.25C0 3.08125 0.4312 2.08108 1.2936 1.2495C2.156 0.417916 3.19147 0.00141667 4.4 0H17.6L22 4.25H39.6C40.81 4.25 41.8462 4.6665 42.7086 5.4995C43.571 6.3325 44.0015 7.33267 44 8.5V29.75C44 30.9187 43.5695 31.9196 42.7086 32.7526C41.8477 33.5856 40.8115 34.0014 39.6 34H4.4ZM4.4 29.75H39.6V8.5H20.185L15.785 4.25H4.4V29.75Z" fill="white"/>
</svg>
