<svg width="27" height="32" viewBox="0 0 27 32" fill="none" xmlns="http://www.w3.org/2000/svg">
<path d="M17.3853 2.86098L18.7453 0.407315C18.7627 0.375874 18.7738 0.341315 18.7778 0.305611C18.7818 0.269907 18.7788 0.233758 18.7689 0.199226C18.7589 0.164694 18.7423 0.132457 18.7199 0.104354C18.6975 0.0762518 18.6698 0.0528347 18.6384 0.0354401C18.6069 0.0180454 18.5724 0.00701371 18.5367 0.00297494C18.501 -0.00106383 18.4648 0.00196942 18.4303 0.0119014C18.3958 0.0218334 18.3635 0.0384696 18.3354 0.0608604C18.3073 0.0832511 18.2839 0.110958 18.2665 0.142398L16.8923 2.62156C15.7193 2.10716 14.4523 1.84157 13.1715 1.84157C11.8906 1.84157 10.6236 2.10716 9.45058 2.62156L8.07642 0.142398C8.04129 0.0785254 7.98222 0.0312239 7.91222 0.0108996C7.84221 -0.00942463 7.767 -0.00110681 7.70313 0.0340233C7.63925 0.0691535 7.59195 0.128218 7.57163 0.198224C7.5513 0.26823 7.55962 0.343442 7.59475 0.407315L8.95475 2.86098C7.66115 3.49969 6.56822 4.482 5.79562 5.70037C5.02302 6.91874 4.60053 8.3262 4.57442 9.76865H21.7685C21.7421 8.3259 21.3192 6.91824 20.5461 5.69984C19.773 4.48144 18.6795 3.49929 17.3853 2.86098ZM9.20408 6.62223C9.06197 6.62223 8.92305 6.58007 8.8049 6.50109C8.68675 6.4221 8.59469 6.30984 8.54037 6.17852C8.48605 6.04719 8.47191 5.9027 8.49974 5.76334C8.52757 5.62397 8.59612 5.49599 8.69671 5.3956C8.7973 5.29521 8.92541 5.22691 9.06483 5.19936C9.20425 5.17181 9.34871 5.18623 9.47993 5.24081C9.61115 5.29539 9.72323 5.38767 9.80198 5.50597C9.88073 5.62428 9.92261 5.76328 9.92233 5.9054C9.92196 6.09564 9.84612 6.27797 9.71146 6.41236C9.57681 6.54675 9.39433 6.62223 9.20408 6.62223ZM17.1403 6.62223C16.9981 6.62223 16.8592 6.58007 16.7411 6.50109C16.6229 6.4221 16.5309 6.30984 16.4765 6.17852C16.4222 6.04719 16.4081 5.9027 16.4359 5.76334C16.4637 5.62397 16.5323 5.49599 16.6329 5.3956C16.7335 5.29521 16.8616 5.22691 17.001 5.19936C17.1404 5.17181 17.2849 5.18623 17.4161 5.24081C17.5473 5.29539 17.6594 5.38767 17.7381 5.50597C17.8169 5.62428 17.8588 5.76328 17.8585 5.9054C17.8581 6.09564 17.7823 6.27797 17.6476 6.41236C17.513 6.54675 17.3305 6.62223 17.1403 6.62223ZM4.57158 22.9096C4.57121 23.1832 4.62483 23.4541 4.72937 23.7068C4.83391 23.9596 4.98732 24.1892 5.18079 24.3825C5.37426 24.5759 5.60399 24.7291 5.85681 24.8335C6.10963 24.9379 6.38057 24.9913 6.65408 24.9907H8.0325V29.2407C8.0325 29.7519 8.23556 30.2421 8.59702 30.6036C8.95847 30.965 9.4487 31.1681 9.95988 31.1681C10.471 31.1681 10.9613 30.965 11.3227 30.6036C11.6842 30.2421 11.8873 29.7519 11.8873 29.2407V24.9907H14.4571V29.2407C14.4571 29.7517 14.6601 30.2418 15.0214 30.6031C15.3827 30.9644 15.8728 31.1674 16.3838 31.1674C16.8947 31.1674 17.3848 30.9644 17.7461 30.6031C18.1074 30.2418 18.3104 29.7517 18.3104 29.2407V24.9907H19.6902C19.9634 24.9909 20.2339 24.9373 20.4863 24.8328C20.7387 24.7284 20.9681 24.5752 21.1612 24.382C21.3544 24.1889 21.5075 23.9595 21.612 23.7071C21.7164 23.4547 21.7701 23.1842 21.7699 22.9111V10.4486H4.57158V22.9096ZM1.92667 10.1171C1.67353 10.1171 1.42288 10.167 1.18904 10.2639C0.95519 10.3609 0.742733 10.5029 0.563807 10.682C0.384881 10.861 0.242993 11.0736 0.146252 11.3075C0.0495117 11.5414 -0.000185606 11.7921 5.20881e-07 12.0452V20.0763C5.17111e-07 20.3293 0.0498351 20.5799 0.146659 20.8136C0.243483 21.0474 0.385401 21.2598 0.564308 21.4387C0.743216 21.6176 0.95561 21.7595 1.18936 21.8563C1.42312 21.9531 1.67365 22.003 1.92667 22.003C2.17968 22.003 2.43022 21.9531 2.66397 21.8563C2.89772 21.7595 3.11012 21.6176 3.28903 21.4387C3.46793 21.2598 3.60985 21.0474 3.70668 20.8136C3.8035 20.5799 3.85333 20.3293 3.85333 20.0763V12.0452C3.85333 11.7922 3.8035 11.5417 3.70668 11.3079C3.60985 11.0742 3.46793 10.8618 3.28903 10.6829C3.11012 10.504 2.89772 10.362 2.66397 10.2652C2.43022 10.1684 2.17968 10.1186 1.92667 10.1186M24.412 10.1186C24.1589 10.1186 23.9082 10.1684 23.6744 10.2654C23.4405 10.3623 23.2281 10.5043 23.0491 10.6834C22.8702 10.8624 22.7283 11.075 22.6316 11.3089C22.5348 11.5428 22.4851 11.7935 22.4853 12.0466V20.0777C22.4853 20.3307 22.5352 20.5813 22.632 20.815C22.7288 21.0488 22.8707 21.2612 23.0496 21.4401C23.2286 21.619 23.4409 21.7609 23.6747 21.8577C23.9085 21.9546 24.159 22.0044 24.412 22.0044C24.665 22.0044 24.9156 21.9546 25.1493 21.8577C25.3831 21.7609 25.5955 21.619 25.7744 21.4401C25.9533 21.2612 26.0952 21.0488 26.192 20.815C26.2888 20.5813 26.3387 20.3307 26.3387 20.0777V12.0452C26.3387 11.5342 26.1357 11.0442 25.7744 10.6829C25.413 10.3216 24.923 10.1186 24.412 10.1186Z" fill="#4B5563"/>
</svg>
