<svg width="34" height="34" viewBox="0 0 34 34" fill="none" xmlns="http://www.w3.org/2000/svg">
<rect width="34" height="34" rx="17" fill="#9B3FEE"/>
<path d="M14.7435 20.0437L24.2778 10.5094C24.5028 10.2844 24.7653 10.1719 25.0653 10.1719C25.3653 10.1719 25.6278 10.2844 25.8528 10.5094C26.0778 10.7344 26.1903 11.0018 26.1903 11.3115C26.1903 11.6213 26.0778 11.8883 25.8528 12.1125L15.531 22.4625C15.306 22.6875 15.0435 22.8 14.7435 22.8C14.4435 22.8 14.181 22.6875 13.956 22.4625L9.11846 17.625C8.89346 17.4 8.78546 17.133 8.79446 16.824C8.80346 16.515 8.92084 16.2476 9.14659 16.0219C9.37234 15.7961 9.63971 15.6836 9.94871 15.6844C10.2577 15.6851 10.5247 15.7976 10.7497 16.0219L14.7435 20.0437Z" fill="white"/>
</svg>
