<svg width="28" height="28" viewBox="0 0 28 28" fill="none" xmlns="http://www.w3.org/2000/svg">
<path d="M1.7142 25.8573L10.4647 17.1068M21.4839 13.2156L18.8646 21.0751C18.8226 21.2008 18.7509 21.3145 18.6557 21.4067C18.5604 21.4988 18.4444 21.5667 18.3173 21.6045L2.26007 26.3785C2.11541 26.4214 1.96174 26.4239 1.81577 26.3856C1.66981 26.3473 1.53714 26.2697 1.43222 26.1612C1.3273 26.0527 1.25414 25.9176 1.2207 25.7704C1.18726 25.6233 1.19483 25.4697 1.24257 25.3266L6.45657 9.68734C6.49394 9.57505 6.55503 9.47211 6.6357 9.38552C6.71636 9.29892 6.81471 9.23069 6.92407 9.18547L14.3312 6.13572C14.4818 6.07352 14.6474 6.05731 14.8072 6.08912C14.967 6.12093 15.1138 6.19934 15.2291 6.31447L21.2846 12.3713C21.3929 12.4797 21.469 12.616 21.5042 12.7651C21.5394 12.9143 21.5324 13.0702 21.4839 13.2156Z" stroke="#4B5563" stroke-width="2.4" stroke-linecap="round" stroke-linejoin="round"/>
<path d="M22.4867 1.90439L25.7372 5.15489C25.9815 5.38858 26.1766 5.66871 26.3111 5.97884C26.4456 6.28897 26.5169 6.62285 26.5206 6.96088C26.5243 7.29891 26.4605 7.63428 26.3329 7.94731C26.2052 8.26034 26.0164 8.54472 25.7773 8.78376C25.5383 9.0228 25.2539 9.21168 24.9409 9.33932C24.6278 9.46695 24.2925 9.53078 23.9544 9.52704C23.6164 9.5233 23.2825 9.45208 22.9724 9.31755C22.6623 9.18302 22.3821 8.9879 22.1484 8.74364L18.8966 5.49314C18.4379 5.01374 18.1852 4.37381 18.1925 3.71038C18.1999 3.04696 18.4667 2.41277 18.9358 1.94363C19.405 1.47449 20.0391 1.20769 20.7026 1.20035C21.366 1.19302 22.0073 1.44573 22.4867 1.90439Z" fill="#4B5563" stroke="#4B5563" stroke-width="2.4" stroke-linecap="round" stroke-linejoin="round"/>
<path d="M13.381 14.1883C13.1907 13.9913 12.9631 13.8341 12.7115 13.726C12.4599 13.6179 12.1892 13.5611 11.9154 13.5587C11.6415 13.5563 11.3699 13.6085 11.1165 13.7122C10.863 13.8159 10.6327 13.969 10.4391 14.1627C10.2454 14.3563 10.0923 14.5866 9.98855 14.8401C9.88484 15.0936 9.83266 15.3652 9.83504 15.639C9.83742 15.9129 9.89431 16.1835 10.0024 16.4351C10.1105 16.6868 10.2676 16.9144 10.4646 17.1046C10.8536 17.4803 11.3746 17.6882 11.9154 17.6835C12.4562 17.6788 12.9735 17.4619 13.3559 17.0795C13.7383 16.6971 13.9552 16.1798 13.9599 15.639C13.9646 15.0982 13.7567 14.5772 13.381 14.1883Z" stroke="#4B5563" stroke-width="2.4" stroke-linecap="round" stroke-linejoin="round"/>
</svg>
