<svg width="34" height="34" viewBox="0 0 34 34" fill="none" xmlns="http://www.w3.org/2000/svg">
<path d="M31.0452 16.524C29.8233 11.0003 28.0111 7.47677 25.1065 6.61814C24.5439 6.45404 23.9606 6.37217 23.3746 6.37509C21.5889 6.37509 20.1798 7.43759 16.9996 7.43759C13.8194 7.43759 12.4076 6.37509 10.6246 6.37509C10.0142 6.37185 9.40623 6.45366 8.81835 6.61814C5.90976 7.47677 4.1128 11.0036 2.87698 16.524C1.61527 22.1625 1.8437 26.6177 4.31003 27.473C6.03659 28.0707 7.58054 26.8349 9.0428 25.016C10.703 22.9441 12.7476 22.3066 16.9996 22.3066C21.2516 22.3066 23.2166 22.9441 24.8794 25.016C26.3403 26.8362 27.9414 28.0567 29.6221 27.4836C32.3461 26.5533 32.3076 22.2289 31.0452 16.524Z" stroke="#4B5563" stroke-width="2.6" stroke-miterlimit="10"/>
<path d="M19.3906 16.2031C20.1241 16.2031 20.7188 15.6085 20.7188 14.875C20.7188 14.1415 20.1241 13.5469 19.3906 13.5469C18.6571 13.5469 18.0625 14.1415 18.0625 14.875C18.0625 15.6085 18.6571 16.2031 19.3906 16.2031Z" fill="#4B5563"/>
<path d="M22.3125 19.125C22.0497 19.125 21.7928 19.047 21.5743 18.9009C21.3558 18.7549 21.1856 18.5472 21.0852 18.3044C20.9847 18.0615 20.9586 17.7943 21.0101 17.5365C21.0617 17.2788 21.1885 17.0422 21.3746 16.8566C21.5606 16.671 21.7976 16.5447 22.0554 16.4939C22.3133 16.443 22.5804 16.4698 22.8231 16.5708C23.0657 16.6718 23.2729 16.8426 23.4184 17.0614C23.5639 17.2803 23.6413 17.5374 23.6406 17.8002C23.6397 18.1519 23.4994 18.4888 23.2505 18.7372C23.0015 18.9855 22.6642 19.125 22.3125 19.125Z" fill="#4B5563"/>
<path d="M22.3125 13.2812C23.046 13.2812 23.6406 12.6866 23.6406 11.9531C23.6406 11.2196 23.046 10.625 22.3125 10.625C21.579 10.625 20.9844 11.2196 20.9844 11.9531C20.9844 12.6866 21.579 13.2812 22.3125 13.2812Z" fill="#4B5563"/>
<path d="M25.2344 16.2031C25.9679 16.2031 26.5625 15.6085 26.5625 14.875C26.5625 14.1415 25.9679 13.5469 25.2344 13.5469C24.5009 13.5469 23.9062 14.1415 23.9062 14.875C23.9062 15.6085 24.5009 16.2031 25.2344 16.2031Z" fill="#4B5563"/>
<path d="M10.625 11.6875V18.0625M13.8125 14.875H7.4375" stroke="#4B5563" stroke-width="1.5" stroke-linecap="round" stroke-linejoin="round"/>
</svg>
