<svg width="22" height="26" viewBox="0 0 22 26" fill="none" xmlns="http://www.w3.org/2000/svg">
<path d="M17.9025 24.48C16.5142 25.8258 14.9984 25.6133 13.5392 24.9758C11.995 24.3242 10.5784 24.2958 8.94919 24.9758C6.90919 25.8542 5.83253 25.5992 4.61419 24.48C-2.29914 17.3542 -1.27914 6.5025 6.56919 6.10583C8.4817 6.205 9.81336 7.15417 10.9325 7.23917C12.6042 6.89917 14.205 5.92167 15.99 6.04917C18.1292 6.21917 19.7442 7.06917 20.8067 8.59917C16.3867 11.2483 17.435 17.0708 21.4867 18.7C20.6792 20.825 19.6309 22.9358 17.8884 24.4942L17.9025 24.48ZM10.7909 6.02083C10.5784 2.86167 13.1425 0.255 16.0892 0C16.5 3.655 12.7742 6.375 10.7909 6.02083Z" fill="#4B5563"/>
</svg>
