<svg width="26" height="30" viewBox="0 0 26 30" fill="none" xmlns="http://www.w3.org/2000/svg">
<path d="M8.7372 25.2021C8.93301 25.1947 9.12254 25.1311 9.28309 25.0188C9.44364 24.9064 9.56839 24.7502 9.6424 24.5688C9.71641 24.3873 9.73653 24.1884 9.70036 23.9958C9.66418 23.8033 9.57325 23.6252 9.43845 23.483C9.02904 23.0787 6.7603 21.3978 6.16939 20.7357C5.89405 20.4264 5.5228 20.2758 5.36501 19.9314C5.00201 19.1373 4.74833 18.0029 5.21033 17.1903C5.29283 17.0418 5.34645 17.1099 5.28251 17.4172C4.92158 19.1538 6.05183 20.5728 6.29933 19.8447C6.47154 19.3425 6.31273 18.4443 6.40451 17.7307C6.56745 16.4653 7.7173 14.0409 8.22261 13.9017C7.44505 12.46 9.13733 11.3297 9.1167 10.0623C9.10226 9.23937 9.83858 11.075 10.5811 11.4648C11.4061 11.8979 12.3167 10.645 13.6078 10.0107C13.9729 9.82821 14.4431 9.62196 14.408 9.46934C14.2575 8.7289 12.7127 10.383 11.3349 10.4387C10.7059 10.4624 10.4728 10.315 10.2315 10.0798C9.4962 9.36828 10.3057 9.96125 11.3968 9.76325C11.8835 9.67559 12.0465 9.59515 12.5621 9.38684C13.0777 9.18059 13.6635 8.87121 14.2482 8.7124C14.6555 8.60412 14.6194 8.2999 14.4627 8.20709C14.373 8.15553 14.2379 8.15965 14.1327 8.34425C13.8811 8.77737 12.7065 9.02487 12.3383 9.13831C11.867 9.28268 11.3463 9.41881 10.6533 9.38993C9.60139 9.34662 9.84683 8.864 9.09298 8.43293C8.87333 8.30609 8.93211 7.97403 9.22704 7.68012C9.37864 7.5275 9.80042 7.44087 10.0108 7.09025C10.0386 7.04178 10.3078 6.76024 10.5192 6.61587C10.5914 6.56431 10.5976 5.27937 9.93964 5.25462C9.37967 5.23193 9.22086 5.66403 9.24354 6.09715C9.26417 6.53028 9.49517 6.88606 9.64779 6.88503C9.9417 6.87987 9.66842 7.20471 9.50548 7.25628C9.26108 7.33671 8.92592 6.29309 8.96408 5.79396C9.00326 5.27215 9.27551 4.35021 9.93345 4.36775C10.5285 4.38321 10.9585 5.12674 10.9379 6.41168C10.9348 6.62825 11.9021 6.30856 12.2239 6.64887C12.4559 6.89121 11.4339 4.37187 13.7089 4.19862C14.307 4.31206 14.8845 4.51315 15.1217 5.88987C15.033 6.03424 15.2722 6.99331 14.9 7.10984C14.4483 7.24803 14.1709 7.08921 14.4328 6.65609C14.6102 6.22606 14.4369 5.12778 13.5232 5.19171C12.6085 5.25875 12.7292 6.8809 12.9808 6.9139C13.2314 6.94484 13.8615 7.3924 14.3029 7.47903C15.7466 7.75746 14.6844 8.58762 14.8752 9.59103C15.0876 10.7254 15.8343 10.4263 16.5046 13.4242C16.6448 13.6067 17.2007 13.78 17.74 16.0848C18.2278 18.1576 17.5389 19.6653 18.7073 19.5416C18.9713 19.5147 19.357 19.4384 19.5241 18.8527C19.9624 17.3161 19.3044 15.4877 18.6424 14.2533C18.2556 13.5335 17.8895 13.0426 17.6977 12.8745C18.4588 13.3242 19.4333 14.7617 19.655 15.826C19.95 17.2264 20.1604 17.8204 19.7169 19.3013C19.9747 19.4302 20.6141 19.7035 20.6141 20.0077C19.9469 19.4611 17.9019 19.3632 17.8504 20.6739C17.5018 20.6821 17.2378 20.7089 17.015 20.976C16.1921 21.9495 16.9532 23.9068 16.8707 24.9567C16.7985 25.8796 16.5427 26.7943 16.3963 27.7225C15.9075 27.7018 15.9549 27.3471 16.1137 26.8438C16.254 26.4004 16.4767 25.8456 16.4912 25.3135C16.5035 24.8319 16.4499 24.5297 16.3303 24.4575C16.2086 24.3822 16.0178 24.5328 15.7528 24.9567C15.1939 25.859 13.979 26.256 12.8447 26.3973C11.7103 26.5396 10.6553 26.4262 10.0974 25.8012C9.90561 25.5878 9.59004 25.8611 9.55086 25.9147C9.50136 25.992 9.73648 26.1416 9.91489 26.4654C10.1727 26.9397 10.4202 27.6596 9.80558 27.9896C9.81176 26.3148 9.2817 26.2189 8.74029 25.1949L8.7372 25.2021ZM8.33295 25.1588C8.74029 25.7982 10.1717 28.4918 7.66058 28.8403C6.82114 28.9589 5.46917 28.3526 4.15845 28.0329C2.98076 27.7441 1.78658 27.575 1.11626 27.3863C0.714076 27.2749 0.545982 27.1285 0.51092 26.9593C0.418107 26.5118 0.999732 25.8868 1.02964 25.3557C1.05851 24.8247 0.835763 24.5514 0.654263 24.1182C0.471732 23.6851 0.423263 23.3613 0.571763 23.1757C0.683138 23.0313 0.915169 22.9694 1.29054 23.0066C1.76492 23.055 2.34242 22.955 2.64973 22.7694C3.17051 22.4497 3.41492 21.8 3.18186 21.0162C3.18186 21.7845 2.93023 22.0743 2.30014 22.426C1.70408 22.7539 0.786263 22.4878 0.365513 22.8539C-0.141862 23.2943 0.545982 24.4297 0.489264 25.265C0.445951 25.9064 -0.222299 26.6283 0.0767634 27.2718C0.375826 27.9174 1.77523 27.9875 3.23548 28.2927C5.31036 28.7259 6.51898 29.4807 7.47701 29.5168C8.87539 29.5684 9.08989 28.1329 11.2854 28.1143C11.9157 28.0811 12.5466 28.0605 13.1778 28.0525C13.8873 28.0422 14.5957 28.0494 15.3228 28.0669C16.783 28.103 16.2818 28.8651 17.2306 29.3529C18.0288 29.7623 19.4684 29.6004 19.8128 29.2735C20.2769 28.83 21.5268 27.7606 22.4858 27.278C23.678 26.6768 26.483 25.6404 24.4473 24.3781C23.9729 24.0842 22.8519 23.7717 22.756 21.6185C22.3332 21.9959 22.3806 24.0027 23.5655 24.3998C24.8897 24.8432 25.7167 25.5878 23.2562 26.4313C21.6268 26.9882 21.3484 27.1584 20.0593 28.2319C18.7537 29.3188 16.817 28.8878 17.1574 26.6005C17.3327 25.4094 17.4358 24.4245 17.1367 23.3892C16.9924 22.8838 16.9202 22.2342 17.0202 21.7783C17.213 20.8935 17.6905 20.6264 18.1608 21.4762C18.4536 22.0104 18.5568 22.6312 19.6117 22.6827C21.269 22.7622 21.5979 21.0812 22.128 21.0049C22.4807 20.9533 22.8344 19.953 22.5652 18.334C22.2765 16.6015 21.2576 13.8687 19.951 12.4806C18.8661 11.3318 18.1814 10.3212 17.7503 8.8774C17.3873 7.66568 17.1862 6.48696 17.2605 5.35878C17.3574 3.8975 16.5489 1.86284 15.2568 0.907901C14.4503 0.309777 13.184 -0.0130048 12.0372 0.000401437C11.3947 0.00762019 10.7894 0.103526 10.3253 0.35412C8.41133 1.39362 8.14526 2.87553 8.17311 4.56987C8.19889 6.16109 8.25354 7.97609 8.43504 9.7024C8.22054 10.4965 7.1068 11.999 6.39317 12.9137C5.4372 13.8625 4.95354 15.694 4.33376 17.2934C4.00376 18.1494 3.44483 18.5309 3.39739 19.6302C3.38501 19.9355 3.39533 20.7285 3.6882 20.5027C4.80814 19.6333 6.21476 21.8196 8.33295 25.1588ZM14.1554 2.22893C14.0935 2.41043 13.846 2.55893 14.0048 2.68578C14.1616 2.81262 14.2523 2.51046 14.572 2.39703C14.6545 2.36609 15.034 2.40734 15.1062 2.22687C15.1371 2.1485 14.9103 2.05878 14.7762 1.92781C14.638 1.7989 14.505 1.68443 14.3771 1.69062C14.045 1.71125 14.208 2.07012 14.1544 2.22996L14.1554 2.22893ZM16.1045 8.82584C16.223 8.70209 16.2839 9.03931 16.6025 9.2404C16.8542 9.39921 17.0975 9.28165 17.1646 9.60546C17.21 9.8375 17.0645 10.0871 16.8717 10.0551C16.5335 9.99734 15.7559 9.19193 16.1045 8.82584ZM10.843 6.78912C10.3191 6.75096 10.283 7.12943 10.4563 7.12325C10.6337 7.11603 10.5244 6.82315 10.843 6.78912ZM9.94376 5.81975C10.0056 5.80737 10.0943 5.91256 10.0675 6.06106C10.0283 6.26525 10.0448 6.39415 10.1871 6.39518C10.2098 6.39518 10.2366 6.39003 10.2449 6.3364C10.313 5.92803 10.1005 5.6269 10.0129 5.60421C9.81383 5.55265 9.83754 5.84037 9.94376 5.81975ZM13.7625 5.64753C13.8965 5.68878 14.0234 5.91771 14.0512 6.16728C14.0533 6.1879 14.2245 6.13118 14.2265 6.07653C14.2369 5.67434 13.8965 5.48871 13.8058 5.49696C13.5995 5.5145 13.6583 5.61659 13.7625 5.64753ZM11.8052 6.83862C12.2826 6.61793 12.4497 6.96031 12.2847 7.01393C12.1156 7.07065 12.1145 6.75818 11.8052 6.83862ZM6.04358 14.9649C5.8167 14.9391 6.10855 14.7689 6.23333 14.5565C6.36739 14.3224 6.34161 14.0306 6.48495 14.0718C6.62829 14.1131 6.54683 14.2781 6.45092 14.5482C6.36636 14.7751 6.12608 14.9742 6.04358 14.9649Z" fill="black"/>
</svg>
