<svg width="25" height="20" viewBox="0 0 25 20" fill="none" xmlns="http://www.w3.org/2000/svg">
<path d="M2.222 19.25C1.58858 19.25 1.06013 19.0383 0.636625 18.6148C0.213125 18.1913 0.000916667 17.6623 0 17.028V2.222C0 1.58858 0.212208 1.06012 0.636625 0.636625C1.06104 0.213125 1.58904 0.000916667 2.22062 0H22.5294C23.1619 0 23.6899 0.212208 24.1134 0.636625C24.5369 1.06104 24.7491 1.5895 24.75 2.222V17.0294C24.75 17.6619 24.5378 18.1903 24.1134 18.6148C23.689 19.0392 23.161 19.2509 22.5294 19.25H2.222ZM2.222 17.875H16.5V12.5345H1.375V17.0294C1.375 17.2402 1.463 17.4341 1.639 17.611C1.815 17.7879 2.00887 17.8759 2.22062 17.875M17.875 17.875H22.5294C22.7402 17.875 22.9341 17.787 23.111 17.611C23.2879 17.435 23.3759 17.2407 23.375 17.028V5.81762H17.875V17.875ZM1.375 11.1595H16.5V5.81625H1.375V11.1595Z" fill="#4B5563"/>
</svg>
